<svg width="auto" height="auto" viewBox="0 0 24 24" fill="none" xmlns="http://www.w3.org/2000/svg">
<path d="M18.002 2.99695H5.99901C5.20339 2.99932 4.44104 3.3165 3.87855 3.87919C3.31605 4.44188 2.99912 5.20433 2.99701 5.99995V18.0019C2.99991 18.7971 3.31715 19.5589 3.87954 20.1211C4.44192 20.6833 5.20381 21.0003 5.99901 21.0029H18.002C18.797 21.0001 19.5587 20.6829 20.1208 20.1208C20.683 19.5586 21.0001 18.797 21.003 18.0019V5.99995C21.0006 5.20458 20.6838 4.44243 20.1215 3.87983C19.5593 3.31723 18.7974 2.99985 18.002 2.99695ZM16.362 15.6439C16.21 16.0039 15.973 16.3239 15.669 16.5709C15.3095 16.8501 14.9003 17.0585 14.463 17.1849C13.973 17.3359 13.389 17.4139 12.713 17.4139H7.88801V6.90895H12.991C13.934 6.90895 14.691 7.12195 15.258 7.55495C15.827 7.99095 16.112 8.63695 16.112 9.51295C16.112 10.0409 15.982 10.4959 15.723 10.8699C15.464 11.2429 15.093 11.5339 14.612 11.7379V11.7719C15.254 11.9069 15.749 12.2099 16.076 12.6839C16.403 13.1569 16.569 13.7529 16.569 14.4729C16.569 14.8779 16.491 15.2609 16.344 15.6199L16.364 15.6409V15.6439H16.362ZM14.278 13.0549C13.969 12.7729 13.539 12.6359 12.981 12.6359H9.73701V15.9119H12.99C13.544 15.9119 13.981 15.7679 14.288 15.4769C14.596 15.1879 14.752 14.7759 14.752 14.2479C14.747 13.7299 14.596 13.3289 14.288 13.0549H14.274H14.278ZM13.827 10.9359C14.126 10.6849 14.271 10.3229 14.271 9.85195C14.271 9.32595 14.14 8.94995 13.874 8.73595C13.61 8.52195 13.228 8.40995 12.728 8.40995H9.72701V11.3079H12.728C13.164 11.3089 13.538 11.1809 13.827 10.9359Z" fill="#7952B3"/>
</svg>
