<svg width="auto" height="auto" viewBox="0 0 113 133" fill="none" xmlns="http://www.w3.org/2000/svg">
<path d="M68.8676 127.868C73.2691 127.868 76.6358 125.259 77.4373 121.237L77.4665 121.091H74.8139L74.7702 121.222C73.852 123.991 71.8116 125.449 68.8676 125.449C64.6847 125.449 61.9593 122.111 61.9593 116.996V116.981C61.9593 111.866 64.6701 108.557 68.8676 108.557C71.8262 108.557 73.8958 110.044 74.7119 112.594L74.8139 112.915H77.4665L77.4373 112.769C76.6358 108.79 73.2399 106.138 68.8676 106.138C63.0086 106.138 59.263 110.364 59.263 116.981V116.996C59.263 123.613 63.0232 127.868 68.8676 127.868ZM84.608 127.81C86.6338 127.81 88.4556 126.717 89.3447 125.055H89.403V127.518H91.9389V117.039C91.9389 114.008 89.6945 112.07 86.1091 112.07C82.5384 112.07 80.3668 114.081 80.1482 116.573L80.1336 116.733H82.5821L82.6113 116.602C82.9028 115.247 84.127 114.314 86.08 114.314C88.1933 114.314 89.403 115.436 89.403 117.287V118.555L85.0598 118.803C81.5765 119.007 79.5652 120.625 79.5652 123.204V123.234C79.5652 125.988 81.5911 127.81 84.608 127.81ZM82.1595 123.234V123.204C82.1595 121.791 83.3254 120.887 85.3513 120.771L89.403 120.523V121.762C89.403 123.962 87.5666 125.609 85.1764 125.609C83.3546 125.609 82.1595 124.691 82.1595 123.234ZM95.1599 127.518H97.6958V118.162C97.6958 115.859 98.9784 114.489 100.946 114.489C101.558 114.489 102.097 114.562 102.301 114.635V112.172C102.097 112.142 101.718 112.07 101.281 112.07C99.5759 112.07 98.2642 113.177 97.7541 114.926H97.6958V112.361H95.1599V127.518ZM109.297 127.81C109.793 127.81 110.332 127.752 110.653 127.708V125.653C110.434 125.668 110.142 125.711 109.836 125.711C108.481 125.711 107.767 125.259 107.767 123.642V114.46H110.653V112.361H107.767V108.266H105.143V112.361H102.928V114.46H105.143V123.656C105.143 126.557 106.513 127.81 109.297 127.81Z" fill="white"/>
<g clip-path="url(#clip0_84_9)">
<path d="M22.4076 133C34.7766 133 44.8152 123.069 44.8152 110.833V88.6666H22.4076C10.0386 88.6666 0 98.5973 0 110.833C0 123.069 10.0386 133 22.4076 133Z" fill="#0ACF83"/>
<path d="M0 66.5C0 54.264 10.0386 44.3334 22.4076 44.3334H44.8152V88.6667H22.4076C10.0386 88.6667 0 78.736 0 66.5Z" fill="#A259FF"/>
<path d="M0 22.1667C0 9.93067 10.0386 0 22.4076 0H44.8152V44.3333H22.4076C10.0386 44.3333 0 34.4027 0 22.1667Z" fill="#F24E1E"/>
<path d="M44.8152 0H67.2228C79.5918 0 89.6304 9.93067 89.6304 22.1667C89.6304 34.4027 79.5918 44.3333 67.2228 44.3333H44.8152V0Z" fill="#FF7262"/>
<path d="M89.6304 66.5C89.6304 78.736 79.5918 88.6667 67.2228 88.6667C54.8538 88.6667 44.8152 78.736 44.8152 66.5C44.8152 54.264 54.8538 44.3334 67.2228 44.3334C79.5918 44.3334 89.6304 54.264 89.6304 66.5Z" fill="#1ABCFE"/>
</g>
<defs>
<clipPath id="clip0_84_9">
<rect width="89.6304" height="133" fill="white"/>
</clipPath>
</defs>
</svg>
