<svg width="auto" height="auto" viewBox="0 0 60 60" fill="none" xmlns="http://www.w3.org/2000/svg">
<g clip-path="url(#clip0_170_18)">
<path fill-rule="evenodd" clip-rule="evenodd" d="M30 0C13.4299 0 0 13.7699 0 30.7594C0 44.3473 8.59334 55.8782 20.5163 59.949C22.0172 60.2266 22.5587 59.2798 22.5587 58.4657C22.5587 57.7348 22.5346 55.798 22.5256 53.2353C14.1789 55.0918 12.4163 49.1089 12.4163 49.1089C11.0567 45.5562 9.08663 44.6094 9.08663 44.6094C6.36455 42.7005 9.29417 42.7436 9.29417 42.7436C12.308 42.9595 13.8871 45.9139 13.8871 45.9139C16.5641 50.6139 20.9134 49.257 22.6158 48.4705C22.8895 46.4814 23.6715 45.1245 24.5258 44.3565C17.8665 43.5825 10.8642 40.9426 10.8642 29.1526C10.8642 25.8004 12.0343 23.0495 13.9443 20.9031C13.6405 20.1228 12.6028 16.9926 14.242 12.7614C14.242 12.7614 16.7596 11.9318 22.4895 15.9101C24.9366 15.2276 27.4609 14.8792 29.997 14.8739C32.5331 14.8781 35.0576 15.2266 37.5045 15.9101C43.2374 11.9287 45.752 12.7614 45.752 12.7614C47.3912 16.9926 46.3625 20.1228 46.0497 20.9031C47.9747 23.0495 49.1297 25.7973 49.1297 29.1526C49.1297 40.9734 42.1215 43.5701 35.4381 44.3319C36.5059 45.2817 37.4684 47.1568 37.4684 50.0249C37.4684 54.1389 37.4323 57.4572 37.4323 58.4657C37.4323 59.2891 37.9677 60.2451 39.4987 59.9429C51.4157 55.8659 60 44.3442 60 30.7594C60 13.7699 46.5701 0 30 0Z" fill="white" fill-opacity="0.8"/>
</g>
<defs>
<clipPath id="clip0_170_18">
<rect width="auto" height="auto" fill="white"/>
</clipPath>
</defs>
</svg>
