<svg width="auto" height="auto" viewBox="0 0 24 24" fill="none" xmlns="http://www.w3.org/2000/svg">
<path d="M18.5 9.50996C17.7501 9.25167 17.0881 8.78725 16.59 8.16996C16.041 7.48219 15.3421 6.9291 14.5465 6.55298C13.7509 6.17687 12.8799 5.9877 12 5.99996C10.8164 5.91613 9.64458 6.2812 8.71801 7.02247C7.79143 7.76373 7.17804 8.82679 7 9.99996C7.35067 9.4132 7.87845 8.95283 8.50739 8.68508C9.13633 8.41733 9.834 8.35602 10.5 8.50996C11.2487 8.77577 11.9096 9.24289 12.41 9.85996C12.962 10.5422 13.6623 11.0896 14.4577 11.4604C15.2531 11.8313 16.1226 12.0158 17 12C18.1836 12.0838 19.3554 11.7187 20.282 10.9775C21.2086 10.2362 21.822 9.17312 22 7.99996C21.6557 8.59373 21.1296 9.06106 20.4994 9.33296C19.8691 9.60486 19.1682 9.66691 18.5 9.50996ZM5.5 14.49C6.24995 14.7483 6.91192 15.2127 7.41 15.83C7.95895 16.5177 8.65794 17.0708 9.4535 17.4469C10.2491 17.823 11.1201 18.0122 12 18C13.1836 18.0838 14.3554 17.7187 15.282 16.9775C16.2086 16.2362 16.822 15.1731 17 14C16.6493 14.5867 16.1215 15.0471 15.4926 15.3148C14.8637 15.5826 14.166 15.6439 13.5 15.49C12.7513 15.2242 12.0904 14.757 11.59 14.14C11.0366 13.4594 10.336 12.9132 9.54091 12.5425C8.74587 12.1718 7.8771 11.9863 7 12C5.81637 11.9161 4.64458 12.2812 3.71801 13.0225C2.79143 13.7637 2.17804 14.8268 2 16C2.34431 15.4062 2.87041 14.9389 3.50063 14.667C4.13086 14.3951 4.83181 14.333 5.5 14.49Z" fill="#38BDF8"/>
</svg>
