<svg width="60" height="60" viewBox="0 0 60 60" fill="none" xmlns="http://www.w3.org/2000/svg">
<path d="M47.5 5.02502H15C11.985 5.02502 7.5 7.02253 7.5 12.525V47.525C7.5 53.0275 11.985 55.025 15 55.025H52.5V50.025H15.03C13.875 49.995 12.5 49.5375 12.5 47.525C12.5 47.2725 12.5225 47.0475 12.56 46.8425C12.84 45.405 14.0175 45.05 15.0275 45.025H50C50.045 45.025 50.0775 45.0025 50.1225 45H52.5V10.025C52.5 7.26752 50.2575 5.02502 47.5 5.02502ZM47.5 40.025H12.5V12.525C12.5 10.51 13.875 10.055 15 10.025H32.5V27.525L37.5 25.025L42.5 27.525V10.025H47.5V40.025Z" fill="#7B4AE2" fill-opacity="0.5"/>
</svg>
