<svg width="60" height="60" viewBox="0 0 60 60" fill="none" xmlns="http://www.w3.org/2000/svg">
<path d="M18.4375 41.9525L21.5625 38.0475L11.5025 30L21.5625 21.9525L18.4375 18.0475L5.9375 28.0475C5.64461 28.2817 5.40817 28.5788 5.24568 28.9167C5.08319 29.2547 4.99883 29.6249 4.99883 30C4.99883 30.375 5.08319 30.7452 5.24568 31.0832C5.40817 31.4211 5.64461 31.7182 5.9375 31.9525L18.4375 41.9525ZM41.5625 18.0475L38.4375 21.9525L48.4975 30L38.4375 38.0475L41.5625 41.9525L54.0625 31.9525C54.3554 31.7182 54.5918 31.4211 54.7543 31.0832C54.9168 30.7452 55.0012 30.375 55.0012 30C55.0012 29.6249 54.9168 29.2547 54.7543 28.9167C54.5918 28.5788 54.3554 28.2817 54.0625 28.0475L41.5625 18.0475ZM37.44 8.03996L27.44 53.04L22.5575 51.955L32.5575 6.95496L37.44 8.03996Z" fill="#7B4AE2" fill-opacity="0.5"/>
</svg>

