<svg width="auto" height="auto" viewBox="0 0 500 500" fill="none" xmlns="http://www.w3.org/2000/svg">
<rect width="500" height="500" rx="250" fill="#7B4AE2" fill-opacity="0.2"/>
<path d="M58 250C58 143.961 143.961 58 250 58C356.039 58 442 143.961 442 250C442 356.039 356.039 442 250 442C143.961 442 58 356.039 58 250Z" fill="#7B4AE2" fill-opacity="0.2"/>
<path fill-rule="evenodd" clip-rule="evenodd" d="M129.587 271.518C128.427 270.678 127.321 269.724 126.284 268.655C116.572 258.65 116.572 242.429 126.284 232.424L196.626 159.962C206.338 149.957 222.085 149.957 231.797 159.962C241.51 169.967 241.51 186.188 231.797 196.193L179.303 250.27L232.413 304.981C242.125 314.986 242.125 331.207 232.413 341.212C222.701 351.217 206.954 351.217 197.242 341.212L129.587 271.518ZM177.91 248.835L230.404 194.758C239.347 185.546 239.347 170.609 230.404 161.397C221.461 152.185 206.962 152.185 198.019 161.397L133.91 227.439C143.128 222.98 154.455 224.673 162.071 232.519L177.91 248.835Z" fill="white" fill-opacity="0.8"/>
<path fill-rule="evenodd" clip-rule="evenodd" d="M380.209 250.358C380.278 243.709 377.851 237.039 372.927 231.966L302.584 159.504C292.872 149.499 277.126 149.499 267.413 159.504C257.701 169.509 257.701 185.73 267.413 195.735L320.438 250.358L267.413 304.981C257.701 314.986 257.701 331.207 267.413 341.212C277.126 351.217 292.872 351.217 302.584 341.212L372.927 268.75C377.851 263.677 380.278 257.006 380.209 250.358ZM321.831 251.793L268.806 306.416C259.864 315.628 259.864 330.565 268.806 339.777C277.749 348.989 292.249 348.989 301.191 339.777L365.6 273.427C356.44 277.697 345.285 275.953 337.756 268.197L321.831 251.793Z" fill="white" fill-opacity="0.8"/>
<rect x="380" y="320" width="60" height="60" rx="30" fill="#7B4AE2" fill-opacity="0.2"/>
<path d="M403.963 349.23H414.783C414.783 349.23 420.863 349.327 420.863 343.355V333.477C420.863 333.477 421.785 327.5 409.84 327.5C398.405 327.5 399.118 332.457 399.118 332.457L399.133 337.595H410.04V339.137H394.8C394.8 339.137 387.483 338.307 387.483 349.842C387.483 361.377 393.87 360.967 393.87 360.967H397.68V355.615C397.68 355.615 397.473 349.23 403.963 349.23ZM403.823 334.88C403.302 334.88 402.803 334.673 402.435 334.305C402.067 333.937 401.86 333.438 401.86 332.917C401.86 332.397 402.067 331.898 402.435 331.53C402.803 331.162 403.302 330.955 403.823 330.955C404.343 330.955 404.842 331.162 405.21 331.53C405.578 331.898 405.785 332.397 405.785 332.917C405.785 333.438 405.578 333.937 405.21 334.305C404.842 334.673 404.343 334.88 403.823 334.88Z" fill="white" fill-opacity="0.8"/>
<path d="M426.13 338.83H422.32V344.183C422.32 344.183 422.527 350.568 416.037 350.568H405.217C405.217 350.568 399.137 350.468 399.137 356.443V366.32C399.137 366.32 398.215 372.298 410.16 372.298C421.592 372.298 420.88 367.34 420.88 367.34L420.865 362.205H409.957V360.663H425.2C425.2 360.663 432.517 361.493 432.517 349.958C432.517 338.423 426.13 338.83 426.13 338.83ZM416.177 364.92C416.698 364.92 417.197 365.127 417.565 365.495C417.933 365.863 418.14 366.362 418.14 366.883C418.14 367.403 417.933 367.902 417.565 368.27C417.197 368.638 416.698 368.845 416.177 368.845C415.657 368.845 415.158 368.638 414.79 368.27C414.422 367.902 414.215 367.403 414.215 366.883C414.215 366.362 414.422 365.863 414.79 365.495C415.158 365.127 415.657 364.92 416.177 364.92Z" fill="white" fill-opacity="0.8"/>
<rect x="58" y="58" width="60" height="60" rx="30" fill="#7B4AE2" fill-opacity="0.2"/>
<path d="M84.2075 89.205H91.7925L88 80.0775L84.2075 89.205Z" fill="white" fill-opacity="0.8"/>
<path d="M88 65.6851L67.2225 73.0951L70.3925 100.563L88 110.313L105.607 100.563L108.777 73.0951L88 65.6851ZM100.967 99.7376H96.125L93.5125 93.2226H82.4875L79.875 99.7376H75.0325L88 70.6176L100.967 99.7376Z" fill="white" fill-opacity="0.8"/>
<rect x="53" y="315" width="70" height="70" rx="35" fill="#7B4AE2" fill-opacity="0.2"/>
<path d="M68 330H108V370H68V330ZM104.722 360.46C104.431 358.636 103.242 357.102 99.7178 355.671C98.4911 355.096 97.1289 354.698 96.72 353.773C96.5689 353.222 96.5467 352.924 96.6444 352.598C96.8956 351.522 98.1711 351.2 99.1711 351.498C99.8222 351.698 100.422 352.198 100.798 353C102.52 351.873 102.52 351.873 103.722 351.124C103.271 350.427 103.047 350.122 102.747 349.822C101.696 348.649 100.296 348.049 98.0222 348.1L96.8489 348.249C95.7222 348.524 94.6467 349.127 93.9978 349.924C92.0978 352.076 92.6467 355.824 94.9467 357.378C97.22 359.078 100.549 359.451 100.973 361.051C101.373 363.002 99.5244 363.627 97.6956 363.402C96.3467 363.1 95.5956 362.427 94.7711 361.176L91.7222 362.927C92.0711 363.724 92.4711 364.076 93.0711 364.776C95.9711 367.7 103.222 367.551 104.522 363.1C104.569 362.951 104.922 361.927 104.647 360.351L104.722 360.46ZM89.7511 348.384H86.0044C86.0044 351.613 85.9889 354.824 85.9889 358.06C85.9889 360.113 86.0933 361.998 85.7578 362.578C85.2089 363.727 83.7889 363.58 83.1467 363.376C82.4867 363.051 82.1511 362.6 81.7622 361.951C81.6578 361.778 81.58 361.627 81.5511 361.627L78.5111 363.502C79.02 364.553 79.7622 365.456 80.72 366.029C82.1444 366.88 84.0578 367.156 86.0622 366.707C87.3689 366.329 88.4956 365.553 89.08 364.353C89.9333 362.804 89.7511 360.902 89.7444 358.778C89.7622 355.353 89.7444 351.927 89.7444 348.478L89.7511 348.384Z" fill="white" fill-opacity="0.8"/>
<rect x="361" y="118" width="60" height="60" rx="30" fill="#7B4AE2" fill-opacity="0.2"/>
<path d="M407.25 141.775C405.375 141.129 403.72 139.968 402.475 138.425C401.103 136.706 399.355 135.323 397.366 134.383C395.377 133.442 393.2 132.969 391 133C388.041 132.79 385.111 133.703 382.795 135.556C380.479 137.409 378.945 140.067 378.5 143C379.377 141.533 380.696 140.382 382.268 139.713C383.841 139.043 385.585 138.89 387.25 139.275C389.122 139.939 390.774 141.107 392.025 142.65C393.405 144.356 395.156 145.724 397.144 146.651C399.133 147.578 401.306 148.04 403.5 148C406.459 148.21 409.389 147.297 411.705 145.444C414.021 143.591 415.555 140.933 416 138C415.139 139.484 413.824 140.653 412.248 141.332C410.673 142.012 408.92 142.167 407.25 141.775ZM374.75 154.225C376.625 154.871 378.28 156.032 379.525 157.575C380.897 159.294 382.645 160.677 384.634 161.617C386.623 162.558 388.8 163.031 391 163C393.959 163.21 396.889 162.297 399.205 160.444C401.521 158.591 403.055 155.933 403.5 153C402.623 154.467 401.304 155.618 399.732 156.287C398.159 156.957 396.415 157.11 394.75 156.725C392.878 156.06 391.226 154.893 389.975 153.35C388.591 151.649 386.84 150.283 384.852 149.356C382.865 148.43 380.693 147.966 378.5 148C375.541 147.79 372.611 148.703 370.295 150.556C367.979 152.409 366.445 155.067 366 158C366.861 156.516 368.176 155.347 369.752 154.667C371.327 153.988 373.08 153.833 374.75 154.225Z" fill="white" fill-opacity="0.8"/>
</svg>
