<svg width="60" height="60" viewBox="0 0 60 60" fill="none" xmlns="http://www.w3.org/2000/svg">
<g clip-path="url(#clip0_170_15)">
<path d="M56.6667 0H3.33333C2.44928 0 1.60143 0.351189 0.976311 0.976311C0.351189 1.60143 0 2.44928 0 3.33333V56.6667C0 57.5507 0.351189 58.3986 0.976311 59.0237C1.60143 59.6488 2.44928 60 3.33333 60H56.6667C57.5507 60 58.3986 59.6488 59.0237 59.0237C59.6488 58.3986 60 57.5507 60 56.6667V3.33333C60 2.44928 59.6488 1.60143 59.0237 0.976311C58.3986 0.351189 57.5507 0 56.6667 0ZM17.7967 46.67C17.7967 49.1295 15.8028 51.1233 13.3433 51.1233C10.8838 51.1233 8.89 49.1295 8.89 46.67V26.9433C8.89 24.4838 10.8838 22.49 13.3433 22.49C15.8028 22.49 17.7967 24.4838 17.7967 26.9433V46.67ZM13.3433 18.58C11.9748 18.58 10.6623 18.0364 9.69466 17.0687C8.72697 16.101 8.18333 14.7885 8.18333 13.42C8.18333 12.0515 8.72697 10.739 9.69466 9.77133C10.6623 8.80364 11.9748 8.26 13.3433 8.26C14.7118 8.26 16.0243 8.80364 16.992 9.77133C17.9597 10.739 18.5033 12.0515 18.5033 13.42C18.5033 14.7885 17.9597 16.101 16.992 17.0687C16.0243 18.0364 14.7118 18.58 13.3433 18.58ZM51.1257 46.6745C51.1262 49.1314 49.1347 51.1233 46.6779 51.1233C44.2214 51.1233 42.23 49.132 42.23 46.6755V37.2C42.23 33.88 42.17 29.61 37.6033 29.61C32.97 29.61 32.2667 33.23 32.2667 36.9667V46.6817C32.2667 49.1366 30.2766 51.1267 27.8217 51.1267C25.3668 51.1267 23.3767 49.1366 23.3767 46.6817V26.76C23.3767 24.4036 25.2869 22.4933 27.6433 22.4933H29.9533C31.034 22.4933 31.91 23.3694 31.91 24.45V26.3298C31.91 26.3722 31.9444 26.4067 31.9869 26.4067C32.0154 26.4067 32.0414 26.3912 32.0549 26.366C33.2517 24.1282 36.1494 21.7833 40.4467 21.7833C49.46 21.7833 51.1233 27.71 51.1233 35.4233L51.1257 46.6745Z" fill="white" fill-opacity="0.8"/>
</g>
<defs>
<clipPath id="clip0_170_15">
<rect width="60" height="60" rx="30" fill="white"/>
</clipPath>
</defs>
</svg>
