<svg width="auto" viewBox="0 0 211 154" fill="none" xmlns="http://www.w3.org/2000/svg">
<path fill-rule="evenodd" clip-rule="evenodd" d="M13.8204 58.7236C21.0302 55.8282 29.5853 57.3011 35.4264 63.1421L47.87 75.5857L90.0858 33.37C97.1152 26.3406 97.1152 14.9436 90.0858 7.91417C83.0563 0.884735 71.6593 0.884735 64.6299 7.91417L13.8204 58.7236ZM9.30338 93.5876C8.37051 92.9317 7.48116 92.1868 6.64714 91.3528C-1.16335 83.5423 -1.16335 70.879 6.64714 63.0685L63.2157 6.49995C71.0262 -1.31053 83.6895 -1.31053 91.4999 6.49995C99.3104 14.3104 99.3104 26.9737 91.4999 34.7842L49.2842 77L91.9949 119.711C99.8054 127.521 99.8054 140.184 91.995 147.995C84.1845 155.805 71.5212 155.805 63.7107 147.995L9.30338 93.5876Z" fill="white" fill-opacity="0.8"/>
<path fill-rule="evenodd" clip-rule="evenodd" d="M210.852 77.068C210.907 71.8781 208.955 66.6707 204.995 62.7107L148.426 6.14217C140.616 -1.66832 127.953 -1.66832 120.142 6.14217C112.332 13.9527 112.332 26.616 120.142 34.4264L162.784 77.0686L120.142 119.711C112.332 127.521 112.332 140.185 120.142 147.995C127.953 155.805 140.616 155.805 148.426 147.995L204.995 91.4265C208.955 87.4662 210.908 82.2583 210.852 77.068ZM164.198 78.4828L121.556 121.125C114.527 128.154 114.527 139.551 121.556 146.581C128.586 153.61 139.983 153.61 147.012 146.581L198.09 95.5028C190.928 98.2776 182.491 96.775 176.711 90.995L164.198 78.4828Z" fill="white" fill-opacity="0.8"/>
</svg>
